<svg width="14" height="18" viewBox="0 0 14 18" fill="none" xmlns="http://www.w3.org/2000/svg">
<path d="M1.15838 10.9306C0.445373 9.74229 0.445373 8.25771 1.15838 7.06937C1.37596 6.70674 1.73641 6.45272 2.1511 6.36978L3.84413 6.03117C3.94499 6.011 4.03591 5.95691 4.10176 5.87788L6.17085 3.39498C7.3534 1.97592 7.94468 1.26638 8.47234 1.45742C9 1.64846 9 2.57207 9 4.41928L9 13.5807C9 15.4279 9 16.3515 8.47234 16.5426C7.94468 16.7336 7.3534 16.0241 6.17085 14.605L4.10176 12.1221C4.03591 12.0431 3.94499 11.989 3.84413 11.9688L2.1511 11.6302C1.73641 11.5473 1.37596 11.2933 1.15838 10.9306Z" fill="#222222"/>
<path d="M11.5355 5.46447C12.4684 6.39732 12.9948 7.66105 13 8.9803C13.0052 10.2996 12.4888 11.5674 11.5633 12.5076" stroke="#222222" stroke-width="2" stroke-linecap="round"/>
</svg>
