<svg width="200" height="61" viewBox="0 0 200 61" fill="none" xmlns="http://www.w3.org/2000/svg">
<path d="M47.7341 26.6184C38.0662 20.8707 22.1192 20.3422 12.89 23.1464C11.4079 23.5964 9.84072 22.7588 9.39164 21.2752C8.94255 19.7908 9.77833 18.2228 11.2614 17.7718C21.856 14.552 39.4676 15.1741 50.5975 21.7882C51.9309 22.5803 52.3682 24.3038 51.5777 25.6365C50.7869 26.9708 49.0639 27.4107 47.7341 26.6184ZM47.4175 35.1318C46.7395 36.2338 45.3004 36.579 44.2013 35.9029C36.1411 30.9429 23.8504 29.506 14.3147 32.4037C13.0781 32.7778 11.7719 32.0798 11.3965 30.8441C11.0237 29.6062 11.7213 28.3009 12.9557 27.9245C23.849 24.6154 37.3907 26.2182 46.6482 31.9136C47.7473 32.5912 48.0933 34.0327 47.4175 35.1318ZM43.7475 43.3078C43.2089 44.1925 42.0578 44.4699 41.1774 43.9307C34.1342 39.6214 25.2693 38.6479 14.8292 41.0354C13.823 41.2664 12.8205 40.635 12.5909 39.6281C12.3605 38.621 12.9885 37.6174 13.9969 37.3876C25.4218 34.7729 35.2221 35.8982 43.1276 40.7343C44.009 41.2731 44.2865 42.4259 43.7475 43.3078ZM29.9927 5.36661e-06C13.4285 5.36661e-06 0 13.4427 0 30.0253C0 46.6094 13.4285 60.0518 29.9927 60.0518C46.5576 60.0518 59.9853 46.6094 59.9853 30.0253C59.9853 13.4427 46.5576 5.36661e-06 29.9927 5.36661e-06Z" fill="url(#paint0_linear_900_160)"/>
<path d="M81.5996 27.719C76.4211 26.4827 75.4989 25.6149 75.4989 23.7922C75.4989 22.0694 77.1192 20.9105 79.5281 20.9105C81.8632 20.9105 84.1783 21.7908 86.6062 23.6029C86.6796 23.6577 86.7717 23.6796 86.8623 23.6653C86.9529 23.6516 87.0328 23.6022 87.0861 23.5269L89.6147 19.9586C89.7185 19.8119 89.6902 19.609 89.5502 19.4968C86.661 17.1759 83.4076 16.0475 79.6047 16.0475C74.0133 16.0475 70.1077 19.4064 70.1077 24.2131C70.1077 29.3674 73.4768 31.1922 79.2989 32.6009C84.2542 33.7436 85.0905 34.7008 85.0905 36.4124C85.0905 38.3087 83.3993 39.4876 80.6778 39.4876C77.6553 39.4876 75.1895 38.4683 72.4314 36.0771C72.363 36.0183 72.2691 35.9911 72.1824 35.996C72.0915 36.0036 72.008 36.0459 71.95 36.1158L69.1149 39.4937C68.996 39.6339 69.011 39.8433 69.1482 39.9644C72.3576 42.8325 76.304 44.3477 80.5632 44.3477C86.5883 44.3477 90.4817 41.0516 90.4817 35.9505C90.4817 31.6394 87.9088 29.2552 81.5996 27.719Z" fill="url(#paint1_linear_900_160)"/>
<path d="M108.487 33.497C108.487 37.1374 106.247 39.6776 103.04 39.6776C99.8692 39.6776 97.4775 37.022 97.4775 33.497C97.4775 29.9725 99.8692 27.3165 103.04 27.3165C106.196 27.3165 108.487 29.9151 108.487 33.497ZM104.113 22.6061C101.502 22.6061 99.3595 23.6359 97.5931 25.7459V23.3709C97.5931 23.1834 97.4413 23.0306 97.254 23.0306H92.6174C92.4301 23.0306 92.2786 23.1834 92.2786 23.3709V49.7608C92.2786 49.9483 92.4301 50.101 92.6174 50.101H97.254C97.4413 50.101 97.5931 49.9483 97.5931 49.7608V41.431C99.3599 43.4159 101.502 44.3853 104.113 44.3853C108.966 44.3853 113.878 40.6457 113.878 33.497C113.878 26.3467 108.966 22.6061 104.113 22.6061Z" fill="url(#paint2_linear_900_160)"/>
<path d="M126.47 39.7156C123.146 39.7156 120.64 37.0419 120.64 33.4969C120.64 29.9371 123.06 27.3537 126.394 27.3537C129.739 27.3537 132.262 30.0273 132.262 33.5746C132.262 37.1341 129.826 39.7156 126.47 39.7156ZM126.47 22.606C120.221 22.606 115.325 27.4236 115.325 33.5746C115.325 39.6589 120.187 44.4259 126.394 44.4259C132.665 44.4259 137.576 39.6246 137.576 33.4969C137.576 27.3898 132.699 22.606 126.47 22.606Z" fill="url(#paint3_linear_900_160)"/>
<path d="M150.921 23.0307H145.819V17.808C145.819 17.6205 145.668 17.4681 145.48 17.4681H140.844C140.656 17.4681 140.504 17.6205 140.504 17.808V23.0307H138.274C138.087 23.0307 137.937 23.1834 137.937 23.3709V27.3604C137.937 27.5478 138.087 27.7004 138.274 27.7004H140.504V38.0236C140.504 42.1954 142.578 44.3104 146.668 44.3104C148.331 44.3104 149.711 43.9666 151.012 43.2284C151.118 43.1692 151.183 43.0552 151.183 42.934V39.1349C151.183 39.0175 151.122 38.9071 151.022 38.8455C150.921 38.7821 150.796 38.7789 150.692 38.8301C149.799 39.28 148.935 39.4877 147.97 39.4877C146.483 39.4877 145.819 38.8118 145.819 37.2962V27.7004H150.921C151.109 27.7004 151.259 27.5478 151.259 27.3604V23.3709C151.259 23.1834 151.109 23.0307 150.921 23.0307Z" fill="url(#paint4_linear_900_160)"/>
<path d="M168.699 23.0511V22.4096C168.699 20.5226 169.421 19.6811 171.042 19.6811C172.009 19.6811 172.786 19.8733 173.655 20.1637C173.762 20.1974 173.874 20.1805 173.961 20.1164C174.051 20.0522 174.101 19.9493 174.101 19.8403V15.9285C174.101 15.779 174.005 15.6467 173.861 15.603C172.943 15.3294 171.767 15.0483 170.007 15.0483C165.724 15.0483 163.461 17.4627 163.461 22.0281V23.0105H161.233C161.046 23.0105 160.893 23.1629 160.893 23.3505V27.3603C160.893 27.5478 161.046 27.7004 161.233 27.7004H163.461V43.6234C163.461 43.811 163.612 43.9634 163.799 43.9634H168.435C168.623 43.9634 168.775 43.811 168.775 43.6234V27.7004H173.105L179.737 43.6192C178.984 45.2918 178.243 45.6246 177.233 45.6246C176.416 45.6246 175.555 45.3803 174.676 44.8985C174.593 44.8529 174.495 44.8454 174.406 44.873C174.317 44.9046 174.243 44.9702 174.205 45.0566L172.634 48.5084C172.559 48.6714 172.623 48.863 172.779 48.9476C174.42 49.8371 175.901 50.2168 177.732 50.2168C181.156 50.2168 183.048 48.6199 184.717 44.3244L192.761 23.5143C192.801 23.4096 192.789 23.2917 192.725 23.1984C192.661 23.1066 192.559 23.0511 192.446 23.0511H187.619C187.475 23.0511 187.345 23.1429 187.298 23.2787L182.353 37.4192L176.936 23.2694C176.887 23.1378 176.761 23.0511 176.62 23.0511H168.699Z" fill="url(#paint5_linear_900_160)"/>
<path d="M158.393 23.0306H153.756C153.568 23.0306 153.416 23.1834 153.416 23.3709V43.6234C153.416 43.811 153.568 43.9634 153.756 43.9634H158.393C158.58 43.9634 158.732 43.811 158.732 43.6234V23.3709C158.732 23.1834 158.58 23.0306 158.393 23.0306Z" fill="url(#paint6_linear_900_160)"/>
<path d="M156.098 13.8092C154.261 13.8092 152.77 15.2982 152.77 17.1369C152.77 18.9769 154.261 20.4674 156.098 20.4674C157.934 20.4674 159.423 18.9769 159.423 17.1369C159.423 15.2982 157.934 13.8092 156.098 13.8092Z" fill="url(#paint7_linear_900_160)"/>
<path d="M196.909 25.0451H196.06V26.1297H196.909C197.334 26.1297 197.587 25.922 197.587 25.5872C197.587 25.2343 197.334 25.0451 196.909 25.0451ZM197.46 26.5923L198.383 27.8862H197.605L196.774 26.6995H196.06V27.8862H195.408V24.4569H196.936C197.731 24.4569 198.255 24.8646 198.255 25.5507C198.255 26.1128 197.931 26.4563 197.46 26.5923ZM196.737 23.316C195.065 23.316 193.8 24.6458 193.8 26.275C193.8 27.903 195.056 29.2153 196.72 29.2153C198.391 29.2153 199.657 27.8862 199.657 26.2563C199.657 24.6283 198.4 23.316 196.737 23.316ZM196.72 29.5421C194.884 29.5421 193.457 28.0666 193.457 26.275C193.457 24.483 194.903 22.9908 196.737 22.9908C198.572 22.9908 200 24.4662 200 26.2563C200 28.0483 198.554 29.5421 196.72 29.5421Z" fill="url(#paint8_linear_900_160)"/>
<defs>
<linearGradient id="paint0_linear_900_160" x1="30.4425" y1="72" x2="17.5619" y2="6.8079" gradientUnits="userSpaceOnUse">
<stop stop-color="white"/>
<stop offset="0.998842" stop-color="#0012B3"/>
</linearGradient>
<linearGradient id="paint1_linear_900_160" x1="79.9191" y1="49.9784" x2="72.1338" y2="20.084" gradientUnits="userSpaceOnUse">
<stop stop-color="white"/>
<stop offset="0.998842" stop-color="#0012B3"/>
</linearGradient>
<linearGradient id="paint2_linear_900_160" x1="103.24" y1="55.5715" x2="95.9115" y2="26.3991" gradientUnits="userSpaceOnUse">
<stop stop-color="white"/>
<stop offset="0.998842" stop-color="#0012B3"/>
</linearGradient>
<linearGradient id="paint3_linear_900_160" x1="126.617" y1="48.7673" x2="122.026" y2="25.0436" gradientUnits="userSpaceOnUse">
<stop stop-color="white"/>
<stop offset="0.998842" stop-color="#0012B3"/>
</linearGradient>
<linearGradient id="paint4_linear_900_160" x1="144.698" y1="49.6511" x2="134.302" y2="23.5073" gradientUnits="userSpaceOnUse">
<stop stop-color="white"/>
<stop offset="0.998842" stop-color="#0012B3"/>
</linearGradient>
<linearGradient id="paint5_linear_900_160" x1="177.078" y1="57.2141" x2="168.834" y2="19.3389" gradientUnits="userSpaceOnUse">
<stop stop-color="white"/>
<stop offset="0.998842" stop-color="#0012B3"/>
</linearGradient>
<linearGradient id="paint6_linear_900_160" x1="156.114" y1="48.1283" x2="144.674" y2="33.4073" gradientUnits="userSpaceOnUse">
<stop stop-color="white"/>
<stop offset="0.998842" stop-color="#0012B3"/>
</linearGradient>
<linearGradient id="paint7_linear_900_160" x1="156.146" y1="21.7922" x2="154.719" y2="14.5638" gradientUnits="userSpaceOnUse">
<stop stop-color="white"/>
<stop offset="0.998842" stop-color="#0012B3"/>
</linearGradient>
<linearGradient id="paint8_linear_900_160" x1="196.777" y1="30.8456" x2="195.372" y2="23.7335" gradientUnits="userSpaceOnUse">
<stop stop-color="white"/>
<stop offset="0.998842" stop-color="#0012B3"/>
</linearGradient>
</defs>
</svg>
