<svg width="201" height="61" viewBox="0 0 201 61" fill="none" xmlns="http://www.w3.org/2000/svg">
<path d="M48.2346 27.3725C38.5667 21.6247 22.6197 21.0962 13.3905 23.9004C11.9084 24.3504 10.3412 23.5129 9.89213 22.0292C9.44304 20.5448 10.2788 18.9769 11.7619 18.5258C22.3565 15.3061 39.9681 15.9281 51.098 22.5423C52.4314 23.3343 52.8687 25.0578 52.0782 26.3905C51.2874 27.7249 49.5644 28.1648 48.2346 27.3725ZM47.918 35.8859C47.24 36.9878 45.8009 37.3331 44.7018 36.6569C36.6416 31.6969 24.3509 30.26 14.8151 33.1577C13.5786 33.5318 12.2724 32.8339 11.8969 31.5981C11.5242 30.3602 12.2218 29.055 13.4561 28.6785C24.3495 25.3694 37.8912 26.9722 47.1487 32.6676C48.2478 33.3452 48.5938 34.7867 47.918 35.8859ZM44.248 44.0619C43.7093 44.9465 42.5582 45.2239 41.6779 44.6847C34.6347 40.3754 25.7698 39.4019 15.3297 41.7894C14.3235 42.0204 13.321 41.389 13.0914 40.3821C12.861 39.375 13.489 38.3715 14.4974 38.1416C25.9223 35.5269 35.7226 36.6523 43.628 41.4883C44.5094 42.0271 44.787 43.18 44.248 44.0619ZM30.4932 0.754034C13.929 0.754034 0.500488 14.1967 0.500488 30.7794C0.500488 47.3635 13.929 60.8058 30.4932 60.8058C47.058 60.8058 60.4858 47.3635 60.4858 30.7794C60.4858 14.1967 47.058 0.754034 30.4932 0.754034Z" fill="url(#paint0_linear_885_112)"/>
<path d="M82.1001 28.4731C76.9216 27.2368 75.9994 26.369 75.9994 24.5462C75.9994 22.8234 77.6197 21.6646 80.0286 21.6646C82.3637 21.6646 84.6788 22.5448 87.1067 24.3569C87.1801 24.4118 87.2722 24.4336 87.3628 24.4193C87.4534 24.4057 87.5333 24.3562 87.5866 24.2809L90.1152 20.7126C90.219 20.566 90.1907 20.363 90.0507 20.2508C87.1615 17.9299 83.9081 16.8016 80.1052 16.8016C74.5138 16.8016 70.6082 20.1605 70.6082 24.9671C70.6082 30.1214 73.9773 31.9462 79.7994 33.3549C84.7547 34.4976 85.591 35.4548 85.591 37.1664C85.591 39.0627 83.8998 40.2417 81.1782 40.2417C78.1558 40.2417 75.69 39.2224 72.9318 36.8311C72.8634 36.7723 72.7696 36.7452 72.6829 36.7501C72.592 36.7576 72.5085 36.7999 72.4505 36.8698L69.6154 40.2477C69.4965 40.3879 69.5115 40.5973 69.6487 40.7184C72.8581 43.5865 76.8045 45.1017 81.0636 45.1017C87.0888 45.1017 90.9822 41.8056 90.9822 36.7045C90.9822 32.3934 88.4093 30.0092 82.1001 28.4731Z" fill="url(#paint1_linear_885_112)"/>
<path d="M108.987 34.251C108.987 37.8914 106.748 40.4316 103.54 40.4316C100.37 40.4316 97.978 37.776 97.978 34.251C97.978 30.7266 100.37 28.0705 103.54 28.0705C106.696 28.0705 108.987 30.6692 108.987 34.251ZM104.614 23.3601C102.002 23.3601 99.86 24.3899 98.0936 26.4999V24.1249C98.0936 23.9374 97.9418 23.7847 97.7545 23.7847H93.1179C92.9305 23.7847 92.7791 23.9374 92.7791 24.1249V50.5148C92.7791 50.7023 92.9305 50.855 93.1179 50.855H97.7545C97.9418 50.855 98.0936 50.7023 98.0936 50.5148V42.185C99.8604 44.1699 102.003 45.1394 104.614 45.1394C109.466 45.1394 114.379 41.3997 114.379 34.251C114.379 27.1008 109.466 23.3601 104.614 23.3601Z" fill="url(#paint2_linear_885_112)"/>
<path d="M126.971 40.4697C123.647 40.4697 121.141 37.7959 121.141 34.2509C121.141 30.6911 123.56 28.1077 126.894 28.1077C130.24 28.1077 132.762 30.7813 132.762 34.3287C132.762 37.8881 130.327 40.4697 126.971 40.4697ZM126.971 23.3601C120.721 23.3601 115.825 28.1776 115.825 34.3287C115.825 40.4129 120.688 45.1799 126.894 45.1799C133.166 45.1799 138.077 40.3786 138.077 34.2509C138.077 28.1439 133.199 23.3601 126.971 23.3601Z" fill="url(#paint3_linear_885_112)"/>
<path d="M151.422 23.7847H146.319V18.5621C146.319 18.3746 146.168 18.2222 145.981 18.2222H141.344C141.157 18.2222 141.004 18.3746 141.004 18.5621V23.7847H138.775C138.588 23.7847 138.437 23.9374 138.437 24.1249V28.1144C138.437 28.3018 138.588 28.4544 138.775 28.4544H141.004V38.7777C141.004 42.9495 143.078 45.0645 147.169 45.0645C148.832 45.0645 150.212 44.7206 151.512 43.9824C151.618 43.9233 151.684 43.8092 151.684 43.688V39.8889C151.684 39.7715 151.623 39.6612 151.523 39.5995C151.422 39.5361 151.296 39.5329 151.193 39.5842C150.299 40.034 149.436 40.2417 148.471 40.2417C146.983 40.2417 146.319 39.5658 146.319 38.0502V28.4544H151.422C151.609 28.4544 151.76 28.3018 151.76 28.1144V24.1249C151.76 23.9374 151.609 23.7847 151.422 23.7847Z" fill="url(#paint4_linear_885_112)"/>
<path d="M169.199 23.8051V23.1637C169.199 21.2766 169.922 20.4351 171.543 20.4351C172.51 20.4351 173.286 20.6273 174.156 20.9177C174.263 20.9514 174.374 20.9346 174.461 20.8704C174.551 20.8062 174.602 20.7033 174.602 20.5943V16.6825C174.602 16.533 174.506 16.4007 174.362 16.357C173.443 16.0834 172.268 15.8023 170.508 15.8023C166.225 15.8023 163.961 18.2168 163.961 22.7822V23.7646H161.734C161.547 23.7646 161.393 23.917 161.393 24.1045V28.1144C161.393 28.3018 161.547 28.4544 161.734 28.4544H163.961V44.3775C163.961 44.565 164.112 44.7174 164.299 44.7174H168.936C169.123 44.7174 169.276 44.565 169.276 44.3775V28.4544H173.605L180.237 44.3733C179.484 46.0458 178.744 46.3786 177.733 46.3786C176.916 46.3786 176.056 46.1343 175.176 45.6526C175.094 45.6069 174.996 45.5995 174.906 45.6271C174.818 45.6586 174.743 45.7243 174.706 45.8107L173.134 49.2624C173.059 49.4254 173.123 49.617 173.28 49.7016C174.921 50.5911 176.402 50.9708 178.232 50.9708C181.656 50.9708 183.548 49.3739 185.217 45.0785L193.261 24.2683C193.302 24.1636 193.29 24.0457 193.226 23.9525C193.162 23.8607 193.059 23.8051 192.947 23.8051H188.12C187.975 23.8051 187.846 23.8969 187.798 24.0328L182.853 38.1732L177.437 24.0234C177.388 23.8919 177.261 23.8051 177.12 23.8051H169.199Z" fill="url(#paint5_linear_885_112)"/>
<path d="M158.893 23.7847H154.256C154.069 23.7847 153.917 23.9374 153.917 24.1249V44.3775C153.917 44.565 154.069 44.7174 154.256 44.7174H158.893C159.08 44.7174 159.233 44.565 159.233 44.3775V24.1249C159.233 23.9374 159.08 23.7847 158.893 23.7847Z" fill="url(#paint6_linear_885_112)"/>
<path d="M156.598 14.5632C154.761 14.5632 153.271 16.0523 153.271 17.8909C153.271 19.731 154.761 21.2214 156.598 21.2214C158.434 21.2214 159.923 19.731 159.923 17.8909C159.923 16.0523 158.434 14.5632 156.598 14.5632Z" fill="url(#paint7_linear_885_112)"/>
<path d="M197.41 25.7992H196.56V26.8838H197.41C197.834 26.8838 198.087 26.6761 198.087 26.3412C198.087 25.9884 197.834 25.7992 197.41 25.7992ZM197.961 27.3464L198.884 28.6402H198.105L197.275 27.4535H196.56V28.6402H195.909V25.2109H197.436C198.232 25.2109 198.756 25.6186 198.756 26.3048C198.756 26.8668 198.431 27.2104 197.961 27.3464ZM197.237 24.07C195.566 24.07 194.301 25.3998 194.301 27.029C194.301 28.657 195.557 29.9694 197.22 29.9694C198.891 29.9694 200.157 28.6402 200.157 27.0104C200.157 25.3823 198.901 24.07 197.237 24.07ZM197.22 30.2961C195.385 30.2961 193.957 28.8206 193.957 27.029C193.957 25.2371 195.404 23.7448 197.237 23.7448C199.072 23.7448 200.5 25.2202 200.5 27.0104C200.5 28.8023 199.055 30.2961 197.22 30.2961Z" fill="url(#paint8_linear_885_112)"/>
<defs>
<linearGradient id="paint0_linear_885_112" x1="30.4931" y1="76.4384" x2="30.4934" y2="0.754033" gradientUnits="userSpaceOnUse">
<stop/>
<stop offset="0.998842" stop-color="#2400FF"/>
</linearGradient>
<linearGradient id="paint1_linear_885_112" x1="80.2587" y1="52.4687" x2="80.2589" y2="16.8016" gradientUnits="userSpaceOnUse">
<stop/>
<stop offset="0.998842" stop-color="#2400FF"/>
</linearGradient>
<linearGradient id="paint2_linear_885_112" x1="103.579" y1="58.0124" x2="103.579" y2="23.3601" gradientUnits="userSpaceOnUse">
<stop/>
<stop offset="0.998842" stop-color="#2400FF"/>
</linearGradient>
<linearGradient id="paint3_linear_885_112" x1="126.951" y1="50.86" x2="126.951" y2="23.3601" gradientUnits="userSpaceOnUse">
<stop/>
<stop offset="0.998842" stop-color="#2400FF"/>
</linearGradient>
<linearGradient id="paint4_linear_885_112" x1="145.098" y1="52.052" x2="145.099" y2="18.2222" gradientUnits="userSpaceOnUse">
<stop/>
<stop offset="0.998842" stop-color="#2400FF"/>
</linearGradient>
<linearGradient id="paint5_linear_885_112" x1="177.339" y1="60.1258" x2="177.339" y2="15.8023" gradientUnits="userSpaceOnUse">
<stop/>
<stop offset="0.998842" stop-color="#2400FF"/>
</linearGradient>
<linearGradient id="paint6_linear_885_112" x1="156.575" y1="50.1666" x2="156.575" y2="23.7847" gradientUnits="userSpaceOnUse">
<stop/>
<stop offset="0.998842" stop-color="#2400FF"/>
</linearGradient>
<linearGradient id="paint7_linear_885_112" x1="156.597" y1="22.9547" x2="156.597" y2="14.5632" gradientUnits="userSpaceOnUse">
<stop/>
<stop offset="0.998842" stop-color="#2400FF"/>
</linearGradient>
<linearGradient id="paint8_linear_885_112" x1="197.229" y1="32.0016" x2="197.229" y2="23.7448" gradientUnits="userSpaceOnUse">
<stop/>
<stop offset="0.998842" stop-color="#2400FF"/>
</linearGradient>
</defs>
</svg>
